<svg width="194px" height="22px" viewBox="0 0 185 21" version="1.1" xmlns="http://www.w3.org/2000/svg" xmlns:xlink="http://www.w3.org/1999/xlink">
    <defs>
        <polygon id="path-1" points="0 0 48 0 48 21 0 21"></polygon>
    </defs>
    <g id="Page-1" stroke="none" stroke-width="1" fill="none" fill-rule="evenodd">
        <g id="Minutentag-Menu-Mobile" transform="translate(-28.000000, -14.000000)">
            <g id="Group-24-Copy" transform="translate(28.000000, 14.000000)">
                <g id="Group-3">
                    <mask id="mask-2" fill="white">
                        <use xlink:href="#path-1"></use>
                    </mask>
                    <g id="Clip-2"></g>
                    <path d="M12.6267063,5.90699251 L0.220762501,19.5759536 C0.0776611875,19.7334832 0.00193239,19.9360212 -0.000156680271,20.1422227 L-0.000156680271,20.1542599 C0.000365587298,20.266781 0.0238676279,20.3808722 0.0703494415,20.4886831 C0.203527672,20.7969386 0.502786988,20.9952898 0.833904627,20.9952898 L7.58786883,20.9952898 C7.62390529,20.9973832 7.68031018,21 7.75342764,21 C8.61360233,21 11.6573777,20.671857 14.7324892,16.4431563 C15.8355183,14.9275229 17.4216449,12.587607 19.445954,9.49144441 L18.2760746,8.22074077 C16.1593242,11.4644892 14.5183595,13.8886651 13.391306,15.4367464 C10.7120734,19.121159 8.22451299,19.307473 7.75342764,19.307473 L7.70015635,19.3069496 C7.67404297,19.3038095 7.64636279,19.3027628 7.61920488,19.3027628 L2.73495858,19.3027628 L13.8681363,7.03639055 C13.8785817,7.02487676 14.9032707,5.8729745 16.2141623,5.8729745 C16.9766729,5.8729745 17.730305,6.27177028 18.4562569,7.05837142 L18.794164,7.42524261 L19.959343,8.70484327 C20.2194322,8.99739818 20.4497522,9.26064527 20.6508253,9.49144441 C21.9126237,10.9390417 22.4338467,11.5377587 24.0006494,11.5377587 C25.5664076,11.5377587 26.0886752,10.937995 27.3483846,9.49092105 C27.3739757,9.46213658 27.3990445,9.43282875 27.4246356,9.40352093 L26.4803759,7.93394275 C26.344064,8.0893789 26.2176753,8.23434798 26.1006873,8.36937332 C24.8629132,9.78975622 24.7845731,9.84418504 24.0006494,9.84418504 C23.2156813,9.84418504 23.1373411,9.78975622 21.9006115,8.36937332 C21.6232875,8.05274412 21.2979148,7.67906933 20.9072586,7.24625553 L19.736857,5.96979499 L19.6736626,5.90175897 C18.6202489,4.75980043 17.4561145,4.18097085 16.2141623,4.18097085 C14.1324037,4.18097085 12.6721436,5.85308704 12.6267063,5.90699251 M24.0006494,-0.00010467081 C23.7165359,-0.00010467081 23.4507017,0.148004526 23.2976773,0.390840806 C23.281487,0.4159618 21.9617169,2.51304148 20.2303999,5.20465137 L21.4049796,6.47535501 C22.47145,4.81946279 23.4021308,3.35616486 24.0001272,2.41360421 C24.6884758,3.50165729 25.8191851,5.27844429 27.0919512,7.24625553 L28.0383,8.70588998 C30.3138198,12.1977082 32.0764729,14.8061048 33.2682874,16.4415862 C36.3439212,20.671857 39.3871743,21 40.2463044,21 C40.3209887,21 40.3768713,20.9973832 40.4123855,20.9952898 L47.1653052,20.9952898 C47.4969451,20.9952898 47.7967267,20.7969386 47.9293826,20.4886831 C48.0630831,20.1809509 48.0035446,19.8224534 47.7794918,19.5759536 L35.3886938,5.92426319 C35.3275885,5.85256369 33.8668061,4.18097085 31.7855698,4.18097085 C30.7676703,4.18097085 29.8025199,4.56982291 28.9073532,5.33705995 L29.8458681,6.75482607 C30.4757228,6.16919289 31.1280349,5.8729745 31.7855698,5.8729745 C33.0980282,5.8729745 34.1237617,7.02801689 34.1467415,7.05366124 L45.2647735,19.3027628 L40.3815717,19.3027628 C40.3622478,19.3027628 40.3303895,19.3048562 40.3115879,19.3053796 L40.2463044,19.307473 C39.7757414,19.307473 37.2887032,19.121159 34.6099928,15.4367464 C33.3941539,13.7677704 31.5761405,11.0735437 29.2040012,7.42628932 L28.2618305,5.97031835 C26.2939263,2.92021094 24.7208564,0.418055216 24.7030993,0.390840806 C24.5505972,0.148004526 24.284763,0.000418683241 24.0006494,-0.00010467081" id="Fill-1" fill="#6d556d" mask="url(#mask-2)"></path>
                </g>
                <polygon id="Fill-4" fill="#6d556d" points="64.0325511 18 64.0325511 12.1251124 61.5 15.9680193 61.4487194 15.9680193 58.9415548 12.162545 58.9415548 18 57 18 57 9 59.1344917 9 61.5 12.8059802 63.8655083 9 66 9 66 18"></polygon>
                <g id="Group-23" transform="translate(73.000000, 8.000000)" fill="#6d556d">
                    <polygon id="Fill-5" points="0 9.835172 2.0398947 9.835172 2.0398947 0.166132275 0 0.166132275"></polygon>
                    <polygon id="Fill-7" points="14.835108 9.83522635 10.3442014 3.68882126 10.3442014 9.83522635 8.3315053 9.83522635 8.3315053 0.16618662 10.2113467 0.16618662 14.5552763 6.11966741 14.5552763 0.16618662 16.5690185 0.16618662 16.5690185 9.83522635"></polygon>
                    <path d="M26.6329175,9.98641378 C24.1431999,9.98641378 22.6195554,8.53594913 22.6195554,5.6915385 L22.6195554,0.16629531 L24.6594501,0.16629531 L24.6594501,5.63556328 C24.6594501,7.21047769 25.4152573,8.02510733 26.659593,8.02510733 C27.9039288,8.02510733 28.6597359,7.23710668 28.6597359,5.70458127 L28.6597359,0.16629531 L30.6991076,0.16629531 L30.6991076,5.62252052 C30.6991076,8.55170915 29.1226351,9.98641378 26.6329175,9.98641378" id="Fill-9"></path>
                    <polygon id="Fill-11" points="40.9488985 2.12705831 40.9488985 9.83533504 38.9095268 9.83533504 38.9095268 2.12705831 36.0887186 2.12705831 36.0887186 0.165751861 43.7702298 0.165751861 43.7702298 2.12705831"></polygon>
                    <polygon id="Fill-13" points="49.3047256 9.83522635 49.3047256 0.16618662 56.2984261 0.16618662 56.2984261 2.06010543 51.3331132 2.06010543 51.3331132 4.01923808 55.7026723 4.01923808 55.7026723 5.91315689 51.3331132 5.91315689 51.3331132 7.94348133 56.3658996 7.94348133 56.3658996 9.83522635"></polygon>
                    <polygon id="Fill-15" points="68.6547483 9.83522635 64.1638417 3.68882126 64.1638417 9.83522635 62.1527147 9.83522635 62.1527147 0.16618662 64.0336022 0.16618662 68.3754396 6.11966741 68.3754396 0.16618662 70.3886588 0.16618662 70.3886588 9.83522635"></polygon>
                    <polygon id="Fill-17" points="80.7853221 2.12705831 80.7853221 9.83533504 78.7454274 9.83533504 78.7454274 2.12705831 75.9240961 2.12705831 75.9240961 0.165751861 83.6061303 0.165751861 83.6061303 2.12705831"></polygon>
                    <path d="M96.0405961,9.835172 L95.1948244,7.66572469 L91.2729961,7.66572469 L90.4267013,9.835172 L88.3460087,9.835172 L92.320142,0.0971142873 L94.2010296,0.0971142873 L98.1751629,9.835172 L96.0405961,9.835172 Z M93.2333872,2.65349709 L92.0026507,5.78919624 L94.4662159,5.78919624 L93.2333872,2.65349709 Z" id="Fill-19"></path>
                    <path d="M108.039466,10 C105.15223,10 103.166733,7.8876148 103.166733,5.02907451 L103.166733,5.00081517 C103.166733,2.25150807 105.219704,0 108.026913,0 C109.696488,0 110.701267,0.470083148 111.670479,1.32710179 L110.386391,2.9422314 C109.670336,2.32052606 109.032215,1.96239335 107.962055,1.96239335 C106.477639,1.96239335 105.298684,3.32916689 105.298684,4.97255584 L105.298684,5.00081517 C105.298684,6.76865388 106.463517,8.06749633 108.10537,8.06749633 C108.847055,8.06749633 109.510805,7.87239824 110.027579,7.4860062 L110.027579,6.10510298 L107.975654,6.10510298 L107.975654,4.26987664 L112,4.26987664 L112,8.46747459 C111.048049,9.31090702 109.734148,10 108.039466,10" id="Fill-21"></path>
                </g>
            </g>
        </g>
    </g>
</svg>